<?xml version="1.0" encoding="utf-8"?>
<!-- Generator: Adobe Illustrator 23.0.1, SVG Export Plug-In . SVG Version: 6.00 Build 0)  -->
<svg version="1.1" xmlns="http://www.w3.org/2000/svg" xmlns:xlink="http://www.w3.org/1999/xlink" x="0px" y="0px"
	 viewBox="0 0 32 32" style="enable-background:new 0 0 32 32;" xml:space="preserve">
<style type="text/css">
	.st0{fill:#FA8334;}
	.st1{fill:#22577A;}
</style>
<g id="Layer_2">
	<circle class="st0" cx="25.9" cy="25.8" r="5.2"/>
</g>
<g id="Layer_1">
	<path class="st1" d="M15.5,18h-1c-0.6,0-1-0.4-1-1c0-0.3-0.2-0.5-0.5-0.5s-0.5,0.2-0.5,0.5c0,1.1,0.9,2,2,2v0.5
		c0,0.3,0.2,0.5,0.5,0.5s0.5-0.2,0.5-0.5V19c1.1,0,2-0.9,2-2s-0.9-2-2-2h-1c-0.6,0-1-0.4-1-1s0.4-1,1-1h1c0.6,0,1,0.4,1,1
		c0,0.3,0.2,0.5,0.5,0.5s0.5-0.2,0.5-0.5c0-1.1-0.9-2-2-2v-0.5c0-0.3-0.2-0.5-0.5-0.5s-0.5,0.2-0.5,0.5V12c-1.1,0-2,0.9-2,2
		s0.9,2,2,2h1c0.6,0,1,0.4,1,1S16.1,18,15.5,18z M28.1,23.7l-2.7,3.5l-1.6-1.6c-0.2-0.2-0.5-0.2-0.7,0c-0.2,0.2-0.2,0.5,0,0.7l2,2
		c0.1,0.1,0.2,0.1,0.4,0.1h0c0.1,0,0.3-0.1,0.4-0.2l3-4c0.2-0.2,0.1-0.5-0.1-0.7C28.6,23.4,28.3,23.5,28.1,23.7L28.1,23.7z M27,20.1
		V8.5c0,0,0,0,0,0c0,0,0,0,0-0.1c0-0.1-0.1-0.2-0.1-0.2l-7-8c-0.1-0.1-0.1-0.1-0.2-0.1c0,0,0,0-0.1,0c0,0-0.1,0-0.1,0h-14
		C4.1,0,3,1.1,3,2.5v27C3,30.9,4.1,32,5.5,32h19.9c0,0,0.1,0,0.1,0c0.2,0,0.3,0,0.5,0c3.3,0,6-2.7,6-6C31.9,23.1,29.9,20.6,27,20.1z
		 M20,1.8L25.4,8h-3.9C20.7,8,20,7.3,20,6.5V1.8z M19.5,8h-12C7.2,8,7,7.8,7,7.5v-3C7,4.2,7.2,4,7.5,4H19v2.5C19,7,19.2,7.6,19.5,8z
		 M5.5,31C4.7,31,4,30.3,4,29.5v-27C4,1.7,4.7,1,5.5,1H19v2H7.5C6.7,3,6,3.7,6,4.5v3C6,8.3,6.7,9,7.5,9H26v11c-1.7,0-3.3,0.7-4.5,2
		h-15C6.2,22,6,22.2,6,22.5S6.2,23,6.5,23h14.3c-0.4,0.6-0.6,1.3-0.7,2H6.5C6.2,25,6,25.2,6,25.5S6.2,26,6.5,26H20
		c0,0.7,0.1,1.4,0.4,2H6.5C6.2,28,6,28.2,6,28.5S6.2,29,6.5,29h14.3c0.5,0.8,1.1,1.5,1.9,2H5.5z M26,31c-2.8,0-5-2.2-5-5s2.2-5,5-5
		s5,2.2,5,5C31,28.8,28.8,31,26,31z"/>
</g>
</svg>
