<?xml version="1.0" encoding="utf-8"?>
<!-- Generator: Adobe Illustrator 23.0.1, SVG Export Plug-In . SVG Version: 6.00 Build 0)  -->
<svg version="1.1" id="Layer_1" xmlns="http://www.w3.org/2000/svg" xmlns:xlink="http://www.w3.org/1999/xlink" x="0px" y="0px"
	 viewBox="0 0 1792 1792" style="enable-background:new 0 0 1792 1792;" xml:space="preserve">
<style type="text/css">
	.st0{fill:#FFFFFF;}
</style>
<path class="st0" d="M896,1413c18,0,33-6,45-18l91-91l362-362c12-12,18-27,18-45s-6-33-18-45l-91-91c-12-12-27-18-45-18s-33,6-45,18
	l-189,189V448c0-17.3-6.3-32.3-19-45s-27.7-19-45-19H832c-17.3,0-32.3,6.3-45,19s-19,27.7-19,45v502L579,761
	c-12.7-12.7-27.7-19-45-19s-32.3,6.3-45,19l-91,91c-12,12-18,27-18,45s6,33,18,45l362,362l91,91C863,1407,878,1413,896,1413z
	 M896,1664c-139.3,0-267.8-34.3-385.5-103S299.7,1399.2,231,1281.5S128,1035.3,128,896s34.3-267.8,103-385.5S392.8,299.7,510.5,231
	S756.7,128,896,128s267.8,34.3,385.5,103c117.7,68.7,210.8,161.8,279.5,279.5s103,246.2,103,385.5s-34.3,267.8-103,385.5
	s-161.8,210.8-279.5,279.5C1163.8,1629.7,1035.3,1664,896,1664z"/>
</svg>
