<?xml version="1.0" encoding="utf-8"?>
<!-- Generator: Adobe Illustrator 23.0.1, SVG Export Plug-In . SVG Version: 6.00 Build 0)  -->
<svg version="1.1" id="Layer_1" xmlns="http://www.w3.org/2000/svg" xmlns:xlink="http://www.w3.org/1999/xlink" x="0px" y="0px"
	 viewBox="0 0 60 60" style="enable-background:new 0 0 60 60;" xml:space="preserve">
<style type="text/css">
	.st0{fill:#FFFFFF;}
</style>
<path class="st0" d="M47,32.1V15.8c0-0.4-0.1-0.8-0.3-1.2c0,0,0,0,0-0.1c-0.1-0.3-0.3-0.6-0.6-0.9l-6.8-6.8
	c-0.3-0.2-0.5-0.4-0.9-0.6c0,0,0,0-0.1,0C38,6.1,37.6,6,37.2,6H24V3c0-1.7-1.3-3-3-3H3C1.3,0,0,1.3,0,3v26c0,1.7,1.3,3,3,3l0,0h8v19
	c0,1.7,1.3,3,3,3h20.5c4.4,6.3,13.1,7.9,19.5,3.5s7.9-13.1,3.5-19.5C55.1,34.5,51.2,32.4,47,32.1z M43.6,14H40c-0.6,0-1-0.4-1-1V9.4
	L43.6,14z M2,29V3c0-0.6,0.4-1,1-1h18c0.6,0,1,0.4,1,1v26c0,0.6-0.4,1-1,1H3C2.4,30,2,29.6,2,29z M14,52c-0.6,0-1-0.4-1-1V32h8
	c1.7,0,3-1.3,3-3l0,0V8h13v5c0,1.7,1.3,3,3,3h5v16.1c-7.7,0.5-13.5,7.2-13,14.9c0.1,1.8,0.6,3.5,1.3,5.1H14z M46,58
	c-6.6,0-12-5.4-12-12s5.4-12,12-12s12,5.4,12,12C58,52.6,52.6,58,46,58z"/>
<path class="st0" d="M6,16h12c1.1,0,2-0.9,2-2V6c0-1.1-0.9-2-2-2H6C4.9,4,4,4.9,4,6v8C4,15.1,4.9,16,6,16z M6,6h12v8H6V6z M49,42
	c0,0.6,0.4,1,1,1s1-0.4,1-1c0-2.4-1.7-4.4-4-4.9V37c0-0.6-0.4-1-1-1s-1,0.4-1,1v0.1c-2.7,0.5-4.5,3.2-3.9,5.9c0.4,2,1.9,3.5,3.9,3.9
	v5.9c-1.2-0.4-2-1.5-2-2.8c0-0.6-0.4-1-1-1s-1,0.4-1,1c0,2.4,1.7,4.4,4,4.9V55c0,0.6,0.4,1,1,1s1-0.4,1-1v-0.1
	c2.7-0.5,4.5-3.2,3.9-5.9c-0.4-2-1.9-3.5-3.9-3.9v-5.9C48.2,39.6,49,40.7,49,42z M43,42c0-1.3,0.8-2.4,2-2.8v5.6
	C43.8,44.4,43,43.3,43,42z M49,50c0,1.3-0.8,2.4-2,2.8v-5.6C48.2,47.6,49,48.7,49,50z M7,18H5c-0.6,0-1,0.4-1,1s0.4,1,1,1h2
	c0.6,0,1-0.4,1-1S7.6,18,7,18z M7,22H5c-0.6,0-1,0.4-1,1s0.4,1,1,1h2c0.6,0,1-0.4,1-1S7.6,22,7,22z M7,26H5c-0.6,0-1,0.4-1,1
	s0.4,1,1,1h2c0.6,0,1-0.4,1-1S7.6,26,7,26z M13,18h-2c-0.6,0-1,0.4-1,1s0.4,1,1,1h2c0.6,0,1-0.4,1-1S13.6,18,13,18z M13,22h-2
	c-0.6,0-1,0.4-1,1s0.4,1,1,1h2c0.6,0,1-0.4,1-1S13.6,22,13,22z M14,27c0-0.6-0.4-1-1-1h-2c-0.6,0-1,0.4-1,1s0.4,1,1,1h2
	C13.6,28,14,27.6,14,27z M19,18h-2c-0.6,0-1,0.4-1,1s0.4,1,1,1h2c0.6,0,1-0.4,1-1S19.6,18,19,18z M19,22h-2c-0.6,0-1,0.4-1,1
	s0.4,1,1,1h2c0.6,0,1-0.4,1-1S19.6,22,19,22z M19,26h-2c-0.6,0-1,0.4-1,1s0.4,1,1,1h2c0.6,0,1-0.4,1-1S19.6,26,19,26z M28,22h13
	c0.6,0,1-0.4,1-1s-0.4-1-1-1H28c-0.6,0-1,0.4-1,1S27.4,22,28,22z M28,27h13c0.6,0,1-0.4,1-1s-0.4-1-1-1H28c-0.6,0-1,0.4-1,1
	S27.4,27,28,27z M28,32h13c0.6,0,1-0.4,1-1s-0.4-1-1-1H28c-0.6,0-1,0.4-1,1S27.4,32,28,32z M31,35H17c-0.6,0-1,0.4-1,1s0.4,1,1,1h14
	c0.6,0,1-0.4,1-1S31.6,35,31,35z M29,40H17c-0.6,0-1,0.4-1,1s0.4,1,1,1h12c0.6,0,1-0.4,1-1S29.6,40,29,40z M28,45H17
	c-0.6,0-1,0.4-1,1s0.4,1,1,1h11c0.6,0,1-0.4,1-1S28.6,45,28,45z"/>
</svg>
