<svg xmlns="http://www.w3.org/2000/svg" viewBox="0 0 163 190.44"><defs><style>.cls-1{fill:#23577a;}.cls-2{fill:#57cc9f;}.cls-3{fill:#389da5;}</style></defs><title>c-logo</title><g id="Layer_2" data-name="Layer 2"><g id="Layer_1-2" data-name="Layer 1"><path class="cls-1" d="M161.14,50.31,83.36,95.22.9,47.61a6.8,6.8,0,0,1,2.47-2.47L80,.9a6.74,6.74,0,0,1,6.73,0l74.41,43A3.73,3.73,0,0,1,161.14,50.31Z"/><path class="cls-2" d="M83.36,95.22.9,142.82a6.7,6.7,0,0,1-.9-3.36V51a6.74,6.74,0,0,1,.9-3.37Z"/><path class="cls-3" d="M161.14,146.57l-74.41,43a6.74,6.74,0,0,1-6.73,0L3.37,145.29A6.65,6.65,0,0,1,.9,142.82l82.46-47.6,77.78,44.9A3.73,3.73,0,0,1,161.14,146.57Z"/></g></g></svg>