<svg xmlns="http://www.w3.org/2000/svg" viewBox="0 0 692 149.04"><defs><style>.cls-1,.cls-4{fill:#23577a;}.cls-2{fill:#57cc9f;}.cls-3,.cls-5{fill:#389da5;}.cls-4{font-size:66.03px;font-family:Roboto-Black, Roboto;font-weight:800;}.cls-5{letter-spacing:-0.01em;}.cls-6{fill:none;}</style></defs><title>clearsight-logo_1</title><g id="Layer_2" data-name="Layer 2"><g id="Layer_1-2" data-name="Layer 1"><path class="cls-1" d="M126.11,39.38,65.24,74.52.71,37.26a5.33,5.33,0,0,1,1.93-1.93L62.61.71a5.23,5.23,0,0,1,5.27,0l58.23,33.62A2.92,2.92,0,0,1,126.11,39.38Z"/><path class="cls-2" d="M65.24,74.52.71,111.78A5.21,5.21,0,0,1,0,109.15V39.89a5.21,5.21,0,0,1,.71-2.63Z"/><path class="cls-3" d="M126.11,114.71,67.88,148.34a5.28,5.28,0,0,1-5.27,0l-60-34.63a5.18,5.18,0,0,1-1.93-1.93L65.24,74.52l60.87,35.14A2.92,2.92,0,0,1,126.11,114.71Z"/><text class="cls-4" transform="translate(135.84 97.58)">Clear<tspan class="cls-2" x="157.49" y="0">S</tspan><tspan x="198.83" y="0">ight</tspan><tspan class="cls-5" x="314.89" y="0">F</tspan><tspan x="350.29" y="0">unding</tspan></text><line class="cls-6" x1="0.71" y1="37.26" y2="36.86"/></g></g></svg>