<?xml version="1.0" encoding="utf-8"?>
<!-- Generator: Adobe Illustrator 23.0.1, SVG Export Plug-In . SVG Version: 6.00 Build 0)  -->
<svg version="1.1" id="Layer_1" xmlns="http://www.w3.org/2000/svg" xmlns:xlink="http://www.w3.org/1999/xlink" x="0px" y="0px"
	 viewBox="0 0 32 32" style="enable-background:new 0 0 32 32;" xml:space="preserve">
<style type="text/css">
	.st0{fill:#22577A;}
	.st1{fill:#FA8334;}
</style>
<path class="st0" d="M15.5,12.5h1c0.6,0,1,0.4,1,1c0,0.3,0.2,0.5,0.5,0.5s0.5-0.2,0.5-0.5c0-1.1-0.9-2-2-2V11c0-0.3-0.2-0.5-0.5-0.5
	s-0.5,0.2-0.5,0.5v0.5c-1.1,0-2,0.9-2,2s0.9,2,2,2h1c0.6,0,1,0.4,1,1c0,0.6-0.4,1-1,1h-1c-0.6,0-1-0.4-1-1c0-0.3-0.2-0.5-0.5-0.5
	s-0.5,0.2-0.5,0.5c0,1.1,0.9,2,2,2V19c0,0.3,0.2,0.5,0.5,0.5s0.5-0.2,0.5-0.5v-0.5c1.1,0,2-0.9,2-2s-0.9-2-2-2h-1c-0.6,0-1-0.4-1-1
	S14.9,12.5,15.5,12.5z M27.9,3.5c-0.2-0.2-0.5-0.3-0.7-0.1c0,0,0,0,0,0l-1.7,1.2l-1.7-1.2c-0.2-0.2-0.5-0.1-0.7,0.1
	C22.9,3.7,23,4,23.2,4.2l1.5,1l-1.5,1C23,6.4,22.9,6.7,23,6.9c0.2,0.2,0.5,0.3,0.7,0.1c0,0,0,0,0,0l1.7-1.2l1.7,1.2
	c0.2,0.2,0.5,0.1,0.7-0.1c0.1-0.2,0.1-0.5-0.1-0.7l-1.4-1l1.5-1C28,4,28.1,3.7,27.9,3.5C27.9,3.5,27.9,3.5,27.9,3.5z M30,1h-9
	c-1.1,0-2,0.9-2,2v4c0,1.1,0.9,2,2,2h2.4c0.4,0,0.8,0.2,1.1,0.4l1.9,1.9c0.2,0.2,0.5,0.2,0.7,0l1.9-1.9C29.2,9.2,29.6,9,30,9
	c1.1,0,2-0.9,2-2V3C32,1.9,31.1,1,30,1z M31,7c0,0.6-0.5,1-1,1c-0.7,0-1.3,0.3-1.8,0.7l-1.5,1.5l-1.5-1.5C24.7,8.3,24.1,8,23.4,8H21
	c-0.6,0-1-0.5-1-1V3c0-0.6,0.5-1,1-1h9c0.6,0,1,0.5,1,1V7z M28.5,23h-1v-0.9c0.9-0.8,1.5-1.9,1.5-3.1V18c0-1.6-1.3-3-3-3H25
	c-1.6,0-3,1.3-3,3V19c0,1.2,0.6,2.3,1.5,3.1V23h-1c-1.9,0-3.5,1.6-3.5,3.5v4c0,0.8,0.7,1.5,1.5,1.5h10c0.8,0,1.5-0.7,1.5-1.5v-4
	C32,24.6,30.4,23,28.5,23z M23,19V18c0-1.1,0.9-2,2-2H26c1.1,0,2,0.9,2,2V19c0,1.2-0.7,2.3-1.8,2.7c-0.4,0.2-0.9,0.2-1.4,0
	C23.7,21.3,23,20.2,23,19z M26.5,22.7V23c0,0.6-0.4,1-1,1s-1-0.4-1-1v-0.3C25.1,23,25.9,23,26.5,22.7z M31,30.5
	c0,0.3-0.2,0.5-0.5,0.5H29v-2.5c0-0.3-0.2-0.5-0.5-0.5S28,28.2,28,28.5V31h-5v-2.5c0-0.3-0.2-0.5-0.5-0.5S22,28.2,22,28.5V31h-1.5
	c-0.3,0-0.5-0.2-0.5-0.5v-4c0-1.4,1.1-2.5,2.5-2.5h1.3c0.5,1,1.8,1.3,2.7,0.7c0.3-0.2,0.6-0.4,0.7-0.7h1.3c1.4,0,2.5,1.1,2.5,2.5
	V30.5z M11,1H2C0.9,1,0,1.9,0,3v4c0,1.1,0.9,2,2,2c0.4,0,0.8,0.2,1.1,0.4l1.9,1.9c0.2,0.2,0.5,0.2,0.7,0l1.9-1.9
	C7.8,9.2,8.2,9,8.6,9H11c1.1,0,2-0.9,2-2V3C13,1.9,12.1,1,11,1z M12,7c0,0.6-0.5,1-1,1H8.6C7.9,8,7.3,8.3,6.8,8.7l-1.5,1.5L3.8,8.7
	C3.3,8.3,2.7,8,2,8C1.5,8,1,7.5,1,7V3c0-0.6,0.5-1,1-1h9c0.6,0,1,0.5,1,1V7z M8.6,3.6L5.5,5.8L4.4,4.7c-0.2-0.2-0.5-0.2-0.7,0
	c-0.2,0.2-0.2,0.5,0,0.7l1.4,1.4C5.3,7,5.5,7,5.7,6.9l3.5-2.5c0.2-0.2,0.3-0.5,0.1-0.7C9.1,3.5,8.8,3.4,8.6,3.6L8.6,3.6z M9.5,23h-1
	v-0.9C9.4,21.4,10,20.2,10,19V18c0-1.6-1.3-3-3-3H6c-1.6,0-3,1.3-3,3V19c0,1.2,0.6,2.3,1.5,3.1V23h-1C1.6,23,0,24.6,0,26.5v4
	C0,31.3,0.7,32,1.5,32h10c0.8,0,1.5-0.7,1.5-1.5v-4C13,24.6,11.4,23,9.5,23z M4,19V18c0-1.1,0.9-2,2-2H7c1.1,0,2,0.9,2,2V19
	c0,1.2-0.7,2.3-1.8,2.7c-0.4,0.2-0.9,0.2-1.4,0C4.7,21.3,4,20.2,4,19z M7.5,22.7V23c0,0.6-0.4,1-1,1s-1-0.4-1-1v-0.3
	C6.1,23,6.9,23,7.5,22.7z M12,30.5c0,0.3-0.2,0.5-0.5,0.5H10v-2.5c0-0.3-0.2-0.5-0.5-0.5S9,28.2,9,28.5V31H4v-2.5
	C4,28.2,3.8,28,3.5,28S3,28.2,3,28.5V31H1.5C1.2,31,1,30.8,1,30.5v-4C1,25.1,2.1,24,3.5,24h1.3c0.5,1,1.8,1.3,2.7,0.7
	C7.8,24.6,8,24.3,8.2,24h1.3c1.4,0,2.5,1.1,2.5,2.5V30.5z"/>
<g>
	<path class="st1" d="M27.9,3.5c-0.2-0.2-0.5-0.3-0.7-0.1c0,0,0,0,0,0l-1.7,1.2l-1.7-1.2c-0.2-0.2-0.5-0.1-0.7,0.1
		C22.9,3.7,23,4,23.2,4.2l1.5,1l-1.5,1C23,6.4,22.9,6.7,23,6.9c0.2,0.2,0.5,0.3,0.7,0.1c0,0,0,0,0,0l1.7-1.2l1.7,1.2
		c0.2,0.2,0.5,0.1,0.7-0.1c0.1-0.2,0.1-0.5-0.1-0.7l-1.4-1l1.5-1C28,4,28.1,3.7,27.9,3.5C27.9,3.5,27.9,3.5,27.9,3.5z"/>
</g>
</svg>
