<svg xmlns="http://www.w3.org/2000/svg" viewBox="0 0 324.12 378.68"><defs><style>.cls-1{fill:#23577a;}.cls-2{fill:#57cc9f;}.cls-3{fill:#389da5;}.cls-4{fill:none;}</style></defs><title>footer-logo</title><g id="Layer_2" data-name="Layer 2"><g id="Layer_1-2" data-name="Layer 1"><path class="cls-1" d="M320.42,100.05,165.77,189.34,1.8,94.68a13.26,13.26,0,0,1,4.9-4.91l152.37-88a13.4,13.4,0,0,1,13.39,0l148,85.43A7.41,7.41,0,0,1,320.42,100.05Z"/><path class="cls-2" d="M165.77,189.34,1.8,284A13.33,13.33,0,0,1,0,277.31V101.36a13.29,13.29,0,0,1,1.8-6.68Z"/><path class="cls-3" d="M320.42,291.46l-148,85.42a13.4,13.4,0,0,1-13.39,0L6.7,288.91A13.34,13.34,0,0,1,1.8,284l164-94.66,154.65,89.29A7.41,7.41,0,0,1,320.42,291.46Z"/><line class="cls-4" x1="1.8" y1="94.68" y2="93.64"/></g></g></svg>