<?xml version="1.0" encoding="utf-8"?>
<!-- Generator: Adobe Illustrator 23.0.1, SVG Export Plug-In . SVG Version: 6.00 Build 0)  -->
<svg version="1.1" id="Layer_1" xmlns="http://www.w3.org/2000/svg" xmlns:xlink="http://www.w3.org/1999/xlink" x="0px" y="0px"
	 viewBox="0 0 32 32" style="enable-background:new 0 0 32 32;" xml:space="preserve">
<style type="text/css">
	.st0{fill:#FA8334;}
	.st1{fill:#22577A;}
</style>
<circle class="st0" cx="15.9" cy="12.9" r="5.8"/>
<path class="st1" d="M16,3c0.3,0,0.5-0.2,0.5-0.5v-2C16.5,0.2,16.3,0,16,0s-0.5,0.2-0.5,0.5v2C15.5,2.8,15.7,3,16,3z M9.9,4.6
	C10,4.9,10.3,5,10.5,4.8c0.2-0.1,0.3-0.4,0.2-0.7c0,0,0,0,0,0l-1-1.7C9.6,2.2,9.3,2.1,9.1,2.2C8.8,2.3,8.7,2.6,8.8,2.9c0,0,0,0,0,0
	L9.9,4.6z M16,6.5c-3.6,0-6.5,2.9-6.5,6.5s2.9,6.5,6.5,6.5s6.5-2.9,6.5-6.5C22.5,9.4,19.6,6.5,16,6.5z M16,18.5
	c-3,0-5.5-2.5-5.5-5.5S13,7.5,16,7.5s5.5,2.5,5.5,5.5C21.5,16,19,18.5,16,18.5z M21.5,4.7c0.2,0.1,0.5,0.1,0.7-0.2l1-1.7
	C23.3,2.5,23.3,2.2,23,2S22.5,2,22.3,2.2c0,0,0,0,0,0l-1,1.7C21.2,4.2,21.3,4.5,21.5,4.7z M6.7,7.9l-1.7-1C4.7,6.8,4.4,6.9,4.3,7.1
	C4.1,7.4,4.2,7.7,4.4,7.8l1.7,1c0.2,0.1,0.5,0.1,0.7-0.2C7,8.4,6.9,8.1,6.7,7.9z M15.5,10.5h1c0.6,0,1,0.4,1,1
	c0,0.3,0.2,0.5,0.5,0.5s0.5-0.2,0.5-0.5c0-1.1-0.9-2-2-2V9c0-0.3-0.2-0.5-0.5-0.5S15.5,8.7,15.5,9v0.5c-1.1,0-2,0.9-2,2s0.9,2,2,2h1
	c0.6,0,1,0.4,1,1s-0.4,1-1,1h-1c-0.6,0-1-0.4-1-1c0-0.3-0.2-0.5-0.5-0.5s-0.5,0.2-0.5,0.5c0,1.1,0.9,2,2,2V17c0,0.3,0.2,0.5,0.5,0.5
	s0.5-0.2,0.5-0.5v-0.5c1.1,0,2-0.9,2-2s-0.9-2-2-2h-1c-0.6,0-1-0.4-1-1S14.9,10.5,15.5,10.5z M22,6.3c-1.9-1.7-4.5-2.5-7.1-2.2
	c-4.9,0.6-8.4,5.1-7.8,10c0.2,1.9,1,3.6,2.3,5c1.6,1.8,2.5,4,2.8,6.4l0,0.3c-0.3,0.6-0.2,1.3,0.2,1.7c-0.6,0.6-0.5,1.5,0.1,2.1
	c0.1,0.1,0.3,0.2,0.5,0.3v0.6c0,0.8,0.7,1.5,1.5,1.5h3c0.8,0,1.5-0.7,1.5-1.5v-0.6c0.8-0.3,1.2-1.1,0.9-1.9
	c-0.1-0.2-0.2-0.4-0.3-0.5c0.4-0.5,0.5-1.2,0.2-1.7l0.1-0.5c0.3-2.4,1.4-4.6,3-6.4C26,15.1,25.6,9.5,22,6.3L22,6.3z M18,30.5
	c0,0.3-0.2,0.5-0.5,0.5h-3c-0.3,0-0.5-0.2-0.5-0.5V30h4V30.5z M18.5,29h-5c-0.3,0-0.5-0.2-0.5-0.5s0.2-0.5,0.5-0.5h5
	c0.3,0,0.5,0.2,0.5,0.5S18.8,29,18.5,29z M18.5,27h-5c-0.3,0-0.5-0.2-0.5-0.5s0.2-0.5,0.5-0.5h5c0.3,0,0.5,0.2,0.5,0.5
	S18.8,27,18.5,27z M22.1,18.2c-1.7,1.9-2.8,4.3-3.2,6.9c-0.1,0-0.3-0.1-0.4-0.1h-5c-0.1,0-0.3,0-0.4,0.1c-0.3-2.5-1.3-4.8-3-6.6
	c-3-3.3-2.8-8.3,0.5-11.3s8.3-2.8,11.3,0.5C24.6,10.6,24.7,15.1,22.1,18.2L22.1,18.2z M27.9,7.8c-0.1-0.2-0.4-0.3-0.7-0.2l-1.7,1
	c-0.2,0.1-0.3,0.4-0.2,0.7c0.1,0.2,0.4,0.3,0.7,0.2l1.7-1C28,8.4,28,8.1,27.9,7.8z"/>
</svg>
