<?xml version="1.0" encoding="utf-8"?>
<!-- Generator: Adobe Illustrator 23.0.1, SVG Export Plug-In . SVG Version: 6.00 Build 0)  -->
<svg version="1.1" id="Layer_1" xmlns="http://www.w3.org/2000/svg" xmlns:xlink="http://www.w3.org/1999/xlink" x="0px" y="0px"
	 viewBox="0 0 60 60" style="enable-background:new 0 0 60 60;" xml:space="preserve">
<style type="text/css">
	.st0{fill:#FFFFFF;}
</style>
<path class="st0" d="M57,0H7C5.3,0,4,1.3,4,3v3c0,0.6,0.4,1,1,1s1-0.4,1-1V3c0-0.6,0.4-1,1-1h50c0.6,0,1,0.4,1,1v28c0,0.6-0.4,1-1,1
	H7c-0.6,0-1-0.4-1-1v-3c0-0.6-0.4-1-1-1s-1,0.4-1,1v3c0,1.7,1.3,3,3,3h15.8C16.2,38,14,46.6,18,53.2S30.5,62,37.2,58
	S46,45.5,42,38.8c-1.2-2-2.9-3.7-4.8-4.8H57c1.7,0,3-1.3,3-3V3C60,1.3,58.7,0,57,0z M42,46c0,6.6-5.4,12-12,12s-12-5.4-12-12
	s5.4-12,12-12C36.6,34,42,39.4,42,46z"/>
<path class="st0" d="M9,27c-0.6,0-1,0.4-1,1c0,1.1,0.9,2,2,2h44c1.1,0,2-0.9,2-2V6c0-1.1-0.9-2-2-2H10C8.9,4,8,4.9,8,6
	c0,0.6,0.4,1,1,1s1-0.4,1-1h44v22H10C10,27.4,9.6,27,9,27z"/>
<path class="st0" d="M40,17c0-4.4-3.6-8-8-8s-8,3.6-8,8s3.6,8,8,8C36.4,25,40,21.4,40,17z M26,17c0-3.3,2.7-6,6-6s6,2.7,6,6
	s-2.7,6-6,6C28.7,23,26,20.3,26,17z M21,17c0-2.2-1.8-4-4-4s-4,1.8-4,4s1.8,4,4,4S21,19.2,21,17z M15,17c0-1.1,0.9-2,2-2s2,0.9,2,2
	s-0.9,2-2,2S15,18.1,15,17z M51,17c0-2.2-1.8-4-4-4s-4,1.8-4,4s1.8,4,4,4S51,19.2,51,17z M45,17c0-1.1,0.9-2,2-2s2,0.9,2,2
	s-0.9,2-2,2S45,18.1,45,17z M27.3,52.7c0.2,0.2,0.4,0.3,0.7,0.3c0,0,0.1,0,0.1,0c0.3,0,0.6-0.2,0.7-0.5l7-12
	c0.3-0.5,0.1-1.1-0.4-1.4c-0.5-0.2-1-0.1-1.3,0.3l-6.3,10.9l-2.1-2.1c-0.4-0.4-1-0.4-1.4,0c-0.4,0.4-0.4,1,0,1.4L27.3,52.7z M0,10
	c0,0.6,0.4,1,1,1h11c0.6,0,1-0.4,1-1s-0.4-1-1-1H1C0.4,9,0,9.4,0,10z M1,18h9c0.6,0,1-0.4,1-1s-0.4-1-1-1H1c-0.6,0-1,0.4-1,1
	S0.4,18,1,18z M1,25h7c0.6,0,1-0.4,1-1s-0.4-1-1-1H1c-0.6,0-1,0.4-1,1S0.4,25,1,25z"/>
</svg>
