<svg xmlns="http://www.w3.org/2000/svg" viewBox="0 0 203.58 198.55"><defs><style>.cls-1{fill:#22577a;stroke:#22577a;stroke-miterlimit:10;stroke-width:6px;}</style></defs><title>Logo</title><g id="Layer_2" data-name="Layer 2"><g id="Layer_2-2" data-name="Layer 2"><path class="cls-1" d="M13.28,145.27s-26.84-46,6.21-97.85C46.9,4.4,95.32,3.2,95.32,3.2V36l-17.8,10.6V25.41S50.55,31.32,31.89,63c-16,27.21-8.8,54.83-8.8,54.83L77.52,87V71.83l18-10.8V98.25Z"/><path class="cls-1" d="M107.93,3V56.23l74,42.42s0,14-1.6,19.21L107.93,76.24V97.85l82.44,47.62s14-22.81,9.21-58.43L126.74,45V25.81s16.81,5.2,28.81,16.41l37.62,21.61S180.5,33.86,156.35,19C130.34,3,107.93,3,107.93,3Z"/><path class="cls-1" d="M19.49,155.87l82.44-47.22,82.44,47.63a87.26,87.26,0,0,1-11.61,14l-70.43-40-16.81,9.21,73.64,42.42s-6.41,6-18.41,10.4l-74-42L31.49,170.68S25.89,165.88,19.49,155.87Z"/><path class="cls-1" d="M57.51,186.29a69.31,69.31,0,0,0,21.87,7.2L62.58,184Z"/></g></g></svg>