<?xml version="1.0" encoding="utf-8"?>
<!-- Generator: Adobe Illustrator 23.0.1, SVG Export Plug-In . SVG Version: 6.00 Build 0)  -->
<svg version="1.1" id="Layer_1" xmlns="http://www.w3.org/2000/svg" xmlns:xlink="http://www.w3.org/1999/xlink" x="0px" y="0px"
	 viewBox="0 0 60 60" style="enable-background:new 0 0 60 60;" xml:space="preserve">
<style type="text/css">
	.st0{fill:#FFFFFF;}
</style>
<path class="st0" d="M46,32c-2.9,0-5.7,0.9-8,2.5v-9.5c1.2-0.7,2-2,2-3.5V11c0-1.7-1.3-3-3-3h-4V6c0-2.2-1.8-4-4-4h-2
	c0-1.1-0.9-2-2-2H15c-1.1,0-2,0.9-2,2h-2C8.8,2,7,3.8,7,6v2H3c-1.7,0-3,1.3-3,3v10.6c0,1.4,0.8,2.7,2,3.5V37c0,2.2,1.8,4,4,4h26.9
	c-2.8,7.2,0.9,15.3,8.1,18.1s15.3-0.9,18.1-8.1c2.8-7.2-0.9-15.3-8.1-18.1C49.4,32.3,47.7,32,46,32z M15,2h10v2H15V2z M9,6
	c0-1.1,0.9-2,2-2h2c0,1.1,0.9,2,2,2h10c1.1,0,2-0.9,2-2h2c1.1,0,2,0.9,2,2v2H9V6z M2,11c0-0.6,0.4-1,1-1h34c0.6,0,1,0.4,1,1v10.6
	c0,0.8-0.5,1.6-1.3,1.9c0,0,0,0-0.1,0c-0.1,0-0.2,0.1-0.3,0.1L23,26.2V26c0-1.1-0.9-2-2-2h-2c-1.1,0-2,0.9-2,2v0.2L3.6,23.6
	c-0.1,0-0.2,0-0.3-0.1c0,0,0,0-0.1,0c-0.8-0.3-1.3-1-1.3-1.9V11z M21,26v4h-2v-4H21z M6,39c-1.1,0-2-0.9-2-2V25.7l13,2.6V30
	c0,1.1,0.9,2,2,2h2c1.1,0,2-0.9,2-2v-1.7l13-2.6v10.5c-0.8,0.8-1.5,1.8-2.1,2.8H6z M46,58c-6.6,0-12-5.4-12-12s5.4-12,12-12
	s12,5.4,12,12C58,52.6,52.6,58,46,58z"/>
<path class="st0" d="M49,42c0,0.6,0.4,1,1,1s1-0.4,1-1c0-2.4-1.7-4.4-4-4.9V37c0-0.6-0.4-1-1-1s-1,0.4-1,1v0.1
	c-2.7,0.5-4.5,3.2-3.9,5.9c0.4,2,1.9,3.5,3.9,3.9v5.9c-1.2-0.4-2-1.5-2-2.8c0-0.6-0.4-1-1-1s-1,0.4-1,1c0,2.4,1.7,4.4,4,4.9V55
	c0,0.6,0.4,1,1,1s1-0.4,1-1v-0.1c2.7-0.5,4.5-3.2,3.9-5.9c-0.4-2-1.9-3.5-3.9-3.9v-5.9C48.2,39.6,49,40.7,49,42z M43,42
	c0-1.3,0.8-2.4,2-2.8v5.6C43.8,44.4,43,43.3,43,42z M49,50c0,1.3-0.8,2.4-2,2.8v-5.6C48.2,47.6,49,48.7,49,50z"/>
</svg>
