<?xml version="1.0" encoding="utf-8"?>
<!-- Generator: Adobe Illustrator 23.0.1, SVG Export Plug-In . SVG Version: 6.00 Build 0)  -->
<svg version="1.1" id="Layer_1" xmlns="http://www.w3.org/2000/svg" xmlns:xlink="http://www.w3.org/1999/xlink" x="0px" y="0px"
	 viewBox="0 0 60 60" style="enable-background:new 0 0 60 60;" xml:space="preserve">
<style type="text/css">
	.st0{fill:#FFFFFF;}
</style>
<path class="st0" d="M39.9,4.1c-5.5-5.5-14.3-5.5-19.8,0C17.5,6.7,16,10.3,16,14v4h-2c-3.3,0-6,2.7-6,6v30c0,3.3,2.7,6,6,6h32
	c3.3,0,6-2.7,6-6V24c0-3.3-2.7-6-6-6h-2v-4C44,10.3,42.5,6.7,39.9,4.1z M18,14c0-6.6,5.4-12,12-12s12,5.4,12,12v4h-2v-4
	c0-5.5-4.5-10-10-10S20,8.5,20,14v4h-2V14z M22,18v-4c0-4.4,3.6-8,8-8s8,3.6,8,8v4H22z M50,24v30c0,2.2-1.8,4-4,4H14
	c-2.2,0-4-1.8-4-4V24c0-2.2,1.8-4,4-4h32C48.2,20,50,21.8,50,24z"/>
<path class="st0" d="M30,33.3c-2.9,0-5.2,2.3-5.2,5.2c0,2.3,1.5,4.4,3.7,5v0.6c0,0.8,0.7,1.5,1.5,1.5s1.5-0.7,1.5-1.5v-0.6
	c2.8-0.8,4.3-3.7,3.5-6.5C34.4,34.9,32.3,33.3,30,33.3z M31,42.9c-0.2,0-0.3,0.2-0.3,0.4v0.9c0,0.4-0.3,0.7-0.7,0.7
	s-0.7-0.3-0.7-0.7v-0.9c0-0.2-0.1-0.3-0.3-0.4c-2.4-0.6-3.9-3-3.3-5.4c0.6-2.4,3-3.9,5.4-3.3c2.4,0.6,3.9,3,3.3,5.4
	C34,41.3,32.7,42.5,31,42.9z"/>
</svg>
