<?xml version="1.0" encoding="utf-8"?>
<!-- Generator: Adobe Illustrator 23.0.1, SVG Export Plug-In . SVG Version: 6.00 Build 0)  -->
<svg version="1.1" id="Layer_1" xmlns="http://www.w3.org/2000/svg" xmlns:xlink="http://www.w3.org/1999/xlink" x="0px" y="0px"
	 viewBox="0 0 60 60" style="enable-background:new 0 0 60 60;" xml:space="preserve">
<style type="text/css">
	.st0{fill:#FFFFFF;}
</style>
<path class="st0" d="M41,30c0-6.1-4.9-11-11-11s-11,4.9-11,11s4.9,11,11,11C36.1,41,41,36.1,41,30z M21,30c0-5,4-9,9-9s9,4,9,9
	s-4,9-9,9C25,39,21,35,21,30z"/>
<path class="st0" d="M58.5,26.8l-4.9-1.2c-0.2-1.2-0.6-2.4-1-3.6l3.6-3.5c0.6-0.6,0.8-1.6,0.4-2.4c-0.2-0.4-0.4-0.8-0.6-1.2
	s-0.5-0.8-0.7-1.1c-0.5-0.7-1.4-1.1-2.2-0.8l-4.8,1.4c-0.8-0.9-1.7-1.8-2.6-2.6L47,6.9c0.2-0.8-0.1-1.8-0.8-2.2
	c-0.7-0.5-1.5-0.9-2.3-1.3C43,3,42.1,3.1,41.5,3.8L38,7.4c-1.2-0.4-2.4-0.7-3.6-1l-1.2-4.9c-0.2-0.9-1-1.5-1.8-1.5
	c-0.9,0-1.8,0-2.7,0c-0.9,0.1-1.6,0.7-1.8,1.5l-1.2,4.9c-1.2,0.2-2.4,0.6-3.6,1l-3.5-3.6C17.9,3.1,17,3,16.2,3.4
	C15.8,3.6,15.4,3.8,15,4c-0.4,0.2-0.8,0.5-1.1,0.7c-0.7,0.5-1.1,1.4-0.8,2.2l1.4,4.8c-0.9,0.8-1.8,1.7-2.6,2.6L6.9,13
	c-0.8-0.2-1.8,0.1-2.2,0.8c-0.5,0.7-0.9,1.5-1.3,2.3C3,17,3.1,17.9,3.8,18.5L7.4,22c-0.4,1.2-0.7,2.4-1,3.6l-4.9,1.2
	c-0.9,0.2-1.5,1-1.5,1.8c0,0.4,0,0.9,0,1.3s0,0.9,0,1.3c0.1,0.9,0.7,1.6,1.5,1.8l4.9,1.2c0.2,1.2,0.6,2.4,1,3.6l-3.6,3.5
	C3.1,42.1,3,43,3.4,43.8C3.6,44.2,3.8,44.6,4,45c0.2,0.4,0.5,0.8,0.7,1.1c0.5,0.7,1.4,1.1,2.2,0.8l4.8-1.4c0.8,0.9,1.7,1.8,2.6,2.6
	L13,53.1c-0.2,0.8,0.1,1.8,0.8,2.2c0.7,0.5,1.5,0.9,2.3,1.3c0.8,0.4,1.7,0.2,2.4-0.4l3.5-3.6c1.2,0.4,2.4,0.7,3.6,1l1.2,4.9
	c0.2,0.9,1,1.5,1.8,1.5c0.4,0,0.9,0,1.3,0s0.9,0,1.3,0c0.9-0.1,1.6-0.7,1.8-1.5l1.2-4.9c1.2-0.2,2.4-0.6,3.6-1l3.5,3.6
	c0.6,0.6,1.6,0.8,2.4,0.4c0.4-0.2,0.8-0.4,1.2-0.6s0.8-0.5,1.1-0.7c0.7-0.5,1.1-1.4,0.8-2.2l-1.4-4.8c0.9-0.8,1.8-1.7,2.6-2.6
	l4.8,1.4c0.8,0.2,1.8-0.1,2.2-0.8c0.5-0.7,0.9-1.5,1.3-2.3c0.4-0.8,0.2-1.7-0.4-2.4L52.6,38c0.4-1.2,0.7-2.4,1-3.6l4.9-1.2
	c0.9-0.2,1.5-1,1.5-1.8c0-0.4,0-0.9,0-1.3s0-0.9,0-1.3C59.9,27.8,59.3,27,58.5,26.8z M58,31.2C58,31.2,58,31.2,58,31.2l-4.9,1.2
	c-0.8,0.2-1.3,0.8-1.5,1.6c-0.2,1.1-0.5,2.2-0.9,3.3c-0.3,0.7-0.1,1.6,0.5,2.1l3.6,3.5c-0.2,0.4-0.4,0.7-0.6,1.1s-0.4,0.7-0.6,1
	l-4.8-1.4c-0.7-0.2-1.6,0-2.1,0.6c-0.7,0.9-1.6,1.7-2.4,2.4c-0.6,0.5-0.8,1.3-0.6,2.1l1.4,4.8c-0.7,0.4-1.4,0.9-2.1,1.2l-3.5-3.6
	c-0.5-0.6-1.4-0.7-2.1-0.5c-1.1,0.4-2.2,0.7-3.3,0.9c-0.8,0.1-1.4,0.7-1.6,1.5L31.2,58c-0.8,0-1.6,0-2.5,0l-1.2-4.9
	c-0.2-0.8-0.8-1.3-1.6-1.5c-1.1-0.2-2.2-0.5-3.3-0.9c-0.2-0.1-0.4-0.1-0.7-0.1c-0.5,0-1.1,0.2-1.4,0.6l-3.5,3.6
	c-0.7-0.4-1.4-0.8-2.1-1.2l1.4-4.8c0.2-0.7,0-1.6-0.6-2.1c-0.9-0.7-1.7-1.6-2.4-2.4c-0.5-0.6-1.3-0.8-2.1-0.6l-4.8,1.4
	c-0.4-0.7-0.9-1.4-1.2-2.1l3.6-3.5c0.6-0.5,0.8-1.4,0.5-2.1c-0.4-1.1-0.7-2.2-0.9-3.3c-0.1-0.8-0.7-1.4-1.5-1.6L2,31.2
	c0-0.4,0-0.8,0-1.2s0-0.8,0-1.2l4.9-1.2c0.8-0.2,1.3-0.8,1.5-1.6c0.2-1.1,0.5-2.2,0.9-3.3c0.3-0.7,0.1-1.6-0.5-2.1l-3.6-3.5
	C5.5,16.4,6,15.6,6.4,15l4.8,1.4c0.7,0.2,1.6,0,2.1-0.6c0.7-0.9,1.6-1.7,2.4-2.4c0.6-0.5,0.8-1.3,0.6-2.1l-1.4-4.8
	c0.7-0.4,1.4-0.9,2.1-1.2l3.5,3.6c0.5,0.6,1.4,0.8,2.1,0.5c1.1-0.4,2.2-0.7,3.3-0.9c0.8-0.1,1.4-0.7,1.6-1.5L28.8,2
	c0.8,0,1.6,0,2.5,0l1.2,4.9c0.2,0.8,0.8,1.3,1.6,1.5c1.1,0.2,2.2,0.5,3.3,0.9c0.7,0.3,1.6,0.1,2.1-0.5l3.5-3.6
	C43.6,5.5,44.3,6,45,6.4l-1.4,4.8c-0.2,0.7,0,1.6,0.6,2.1c0.9,0.7,1.7,1.6,2.4,2.4c0.5,0.6,1.3,0.8,2.1,0.6l4.8-1.4
	c0.4,0.7,0.9,1.4,1.2,2.1l-3.6,3.5c-0.6,0.5-0.8,1.4-0.5,2.1c0.4,1.1,0.7,2.2,0.9,3.3c0.1,0.8,0.7,1.4,1.5,1.6l4.9,1.2
	C58,29.6,58,30.4,58,31.2z"/>
<path class="st0" d="M31,35v-0.2c1.6-0.5,2.4-2.3,1.8-3.8c-0.4-1.2-1.6-2-2.8-2c-0.6,0-1-0.4-1-1c0-0.6,0.4-1,1-1
	c0.4,0,0.7,0.2,0.9,0.5c0.3,0.5,0.9,0.6,1.4,0.3c0.4-0.3,0.6-0.9,0.4-1.3c-0.4-0.6-0.9-1.1-1.6-1.3V25c0-0.6-0.4-1-1-1s-1,0.4-1,1
	v0.2c-1.6,0.5-2.4,2.3-1.8,3.8c0.4,1.2,1.6,2,2.8,2c0.6,0,1,0.4,1,1c0,0.6-0.4,1-1,1c-0.4,0-0.7-0.2-0.9-0.5
	c-0.3-0.5-0.9-0.6-1.4-0.3c-0.4,0.3-0.6,0.9-0.4,1.3c0.4,0.6,0.9,1.1,1.6,1.3V35c0,0.6,0.4,1,1,1S31,35.6,31,35L31,35z"/>
<path class="st0" d="M35.3,12.8c-0.5-0.2-1.1,0.1-1.3,0.7c-0.2,0.5,0.1,1.1,0.7,1.3l0,0c8.4,2.6,13.2,11.5,10.6,20
	c-1.8,5.8-6.7,10.1-12.6,11.1l0.1-0.1c0.4-0.4,0.4-1,0-1.4c-0.4-0.4-1-0.4-1.4,0l-2,2c-0.1,0.1-0.2,0.2-0.2,0.3
	c-0.1,0.2-0.1,0.5,0,0.8c0,0.1,0.1,0.2,0.2,0.3l2,2c0.4,0.4,1,0.4,1.4,0c0.4-0.4,0.4-1,0-1.4l-0.5-0.5c9.9-1.2,16.8-10.2,15.6-20.1
	C47,20.7,42.1,14.9,35.3,12.8z M25.3,45.3c-8.4-2.6-13.2-11.5-10.6-20c1.8-5.8,6.7-10.1,12.6-11.1l-0.1,0.1c-0.4,0.4-0.4,1,0,1.4
	c0.4,0.4,1,0.4,1.4,0c0,0,0,0,0,0l2-2c0.1-0.1,0.2-0.2,0.2-0.3c0.1-0.2,0.1-0.5,0-0.8c0-0.1-0.1-0.2-0.2-0.3l-2-2
	c-0.4-0.4-1-0.4-1.4,0c-0.4,0.4-0.4,1,0,1.4l0.5,0.4c-9.9,1.2-16.8,10.2-15.6,20.1c0.9,7,5.8,12.9,12.6,15c0.5,0.2,1.1-0.1,1.3-0.7
	S25.8,45.5,25.3,45.3L25.3,45.3z"/>
</svg>
